<svg width="18" height="16" viewBox="0 0 18 16" fill="none" xmlns="http://www.w3.org/2000/svg">
<path d="M12.719 0.687512C11.977 0.686249 11.2468 0.872922 10.5965 1.23012C9.9462 1.58732 9.39695 2.1034 8.99999 2.73023C8.60303 2.1034 8.05378 1.58732 7.40347 1.23012C6.75316 0.872922 6.02297 0.686249 5.28102 0.687512C4.41433 0.685508 3.5661 0.937943 2.84153 1.41351C2.11697 1.88909 1.54793 2.56687 1.20497 3.36283C0.862022 4.15879 0.760244 5.03791 0.912262 5.89117C1.06428 6.74444 1.46341 7.53431 2.06015 8.16285L8.79636 15.2253C8.82263 15.2529 8.85422 15.2748 8.88923 15.2898C8.92423 15.3048 8.96191 15.3126 8.99999 15.3126C9.03807 15.3126 9.07575 15.3048 9.11075 15.2898C9.14575 15.2748 9.17735 15.2529 9.20361 15.2253L15.9398 8.16285V8.16145C16.5361 7.53285 16.9348 6.7431 17.0866 5.89007C17.2383 5.03704 17.1364 4.15824 16.7935 3.36256C16.4507 2.56688 15.8818 1.8893 15.1575 1.4138C14.4333 0.938298 13.5854 0.68577 12.719 0.687512Z" fill="#D9CFFF"/>
</svg>
