<svg width="331" height="24" viewBox="0 0 331 24" fill="none" xmlns="http://www.w3.org/2000/svg">
<path d="M3 21L20.7801 3M21.3267 3L39.1068 21M219.727 21L237.507 3M238.053 3L255.833 21M111.5 21L129.28 3M129.827 3L147.607 21M38.8335 21L56.6136 3M57.1602 3L74.9403 21M255.56 21L273.34 3M273.887 3L291.667 21M147.333 21L165.114 3M165.66 3L183.44 21M75.1667 21L92.9468 3M93.4934 3L111.273 21M291.893 21L309.673 3M310.22 3L328 21M183.667 21L201.447 3M201.993 3L219.773 21" stroke="#7451FF" stroke-width="5" stroke-linecap="round" stroke-linejoin="round"/>
</svg>
